# Blender 3.5.1
# www.blender.org
mtllib fans.mtl
o Cube
v 120.000000 21.920311 20.506096
v 120.000000 -20.506096 -21.920311
v 120.000000 20.506096 21.920311
v 120.000000 -21.920311 -20.506096
v -120.000000 21.920311 20.506096
v -120.000000 -20.506096 -21.920311
v -120.000000 20.506096 21.920311
v -120.000000 -21.920311 -20.506096
vn -0.0000 0.7071 0.7071
vn -0.0000 -0.7071 0.7071
vn -1.0000 -0.0000 -0.0000
vn -0.0000 -0.7071 -0.7071
vn 1.0000 -0.0000 -0.0000
vn -0.0000 0.7071 -0.7071
vt 0.625000 0.500000
vt -0.000104 0.996939
vt 0.375000 0.500000
vt 0.011869 0.005930
vt 0.625000 0.750000
vt 0.375000 0.750000
vt 0.875000 0.500000
vt 0.625000 0.250000
vt 0.997158 0.992380
vt 0.375000 0.250000
vt 0.125000 0.500000
vt 0.997510 0.010934
vt 0.875000 0.750000
vt 0.625000 1.000000
vt 0.625000 0.000000
vt 0.375000 1.000000
vt 0.375000 0.000000
vt 0.125000 0.750000
s 0
usemtl Material
f 1/1/1 5/7/1 7/13/1 3/5/1
f 4/6/2 3/5/2 7/14/2 8/16/2
f 8/17/3 7/15/3 5/8/3 6/10/3
f 6/11/4 2/3/4 4/6/4 8/18/4
f 2/3/5 1/1/5 3/5/5 4/6/5
f 6/12/6 5/9/6 1/2/6 2/4/6
