# Blender v3.5.1 OBJ File: ''
# www.blender.org
mtllib cocacola.mtl
o Cube
v 30.000000 20.000000 -0.100000
v 30.000000 -20.000000 -0.100000
v 30.000000 20.000000 0.100000
v 30.000000 -20.000000 0.100000
v -30.000000 20.000000 -0.100000
v -30.000000 -20.000000 -0.100000
v -30.000000 20.000000 0.100000
v -30.000000 -20.000000 0.100000
vt 0.625000 0.500000
vt 0.875000 0.500000
vt 0.875000 0.750000
vt 0.625000 0.750000
vt 0.877808 0.247588
vt 0.879357 0.772963
vt 0.149214 0.773642
vt 0.150500 0.238630
vt 0.375000 0.000000
vt 0.625000 0.000000
vt 0.625000 0.250000
vt 0.375000 0.250000
vt 0.125000 0.500000
vt 0.375000 0.500000
vt 0.375000 0.750000
vt 0.125000 0.750000
vn 0.0000 1.0000 0.0000
vn 0.0000 0.0000 1.0000
vn -1.0000 0.0000 0.0000
vn 0.0000 -1.0000 0.0000
vn 1.0000 0.0000 0.0000
vn 0.0000 0.0000 -1.0000
usemtl Material
s off
f 1/1/1 5/2/1 7/3/1 3/4/1
f 4/5/2 3/6/2 7/7/2 8/8/2
f 8/9/3 7/10/3 5/11/3 6/12/3
f 6/13/4 2/14/4 4/15/4 8/16/4
f 2/14/5 1/1/5 3/4/5 4/15/5
f 6/12/6 5/11/6 1/1/6 2/14/6
